<svg xmlns="http://www.w3.org/2000/svg" width="144" height="143" viewBox="0 0 144 143"><style>.cls-1,.cls-2,.cls-3{fill:none;stroke:#fff;stroke-linecap:round;stroke-linejoin:round;}.cls-1{stroke-width:5px;}.cls-2{stroke-width:4px;}.cls-3{stroke-width:3px;}</style><path class="cls-1" d="M37.4,79.9c-18.1-5.7-19.8-31.5-10.5-43"/><path class="cls-1" d="M31,33.2c1.5-5,12.1-4.2,18.9-1.5,8.9,3.6,15.4,10.1,22.2,18.4"/><path class="cls-1" d="M72,43.8C70.2,35,71.8,26,75.4,18,81.5,3.8,91.9-.6,93.3,5.8"/><path class="cls-1" d="M99,4.2c4.2-4.9,10.6,6.5,12.4,17.5,1.3,8.3-.3,17.2-4,25.8"/><path class="cls-1" d="M100.8,59c2-8.6,18.7-17.7,27.8-17.2,6.4.4,12.5,5,10.2,8"/><path class="cls-1" d="M94.6,89.4c19-1.3,49.3-11.1,46.3-31.3"/><path class="cls-1" d="M2.9,106.9C2.7,91.9,21.6,82.5,34.6,83"/><path class="cls-1" d="M5.8,112.7c7.7,6.8,25.4,7.4,33.8,2"/><path class="cls-2" d="M30.3,109.6a32.3,32.3,0,0,1,20.3-11"/><path class="cls-1" d="M48,140.1c-6.3-3-2.4-17.2-.2-21.8,4.4-9.2,11-17.6,21.4-20.1"/><path class="cls-1" d="M75.5,102.1c3.7-3,11.5-10,16.3-8.2,6.5,2.4-4,20.3-5.7,23.8-5.2,10.6-13.9,22.2-27.4,20.3"/><path class="cls-1" d="M95.8,106.7l7-2.1"/><path class="cls-1" d="M105.2,108.4a38.6,38.6,0,0,0,19.6,6.3c1.8-2.1,3.1-5.8,2.5-7s-17.5-5.7-19.4-14"/><path class="cls-3" d="M88.7,87.8a30.9,30.9,0,0,1,6.4-18.7"/><path class="cls-2" d="M98.3,48.6a28.5,28.5,0,0,0,5.1-11.7"/><path class="cls-2" d="M81.6,44.4c2.6-7,10.5-1.9,6,3"/><path class="cls-2" d="M56.5,53.1c-4.7-3.8,1.2-10.4,5.2-5.8"/><path class="cls-2" d="M40.4,64.7c-3-2.7-.9-8.6,4-6.5"/><path class="cls-2" d="M50.4,63.7c-2.7-3.2,1.6-7.6,5.2-5.6"/><path class="cls-2" d="M42.4,92.3c-6.6,3-7.6-7.7-.7-6.1"/><path class="cls-2" d="M45.1,80c-4.9-1-1.6-9.8,3.7-5.9"/><path class="cls-2" d="M57.6,75.9c-5-2.2,0-10.3,3.7-4.7"/><path class="cls-2" d="M62.1,64.6c-.9-5.7,6.4-6,4.7,1.2"/><path class="cls-2" d="M70.3,58c-.8-3.6,3.1-5.4,5.4-2.5"/><path class="cls-2" d="M83.7,55.4c4.3-4.8,9.2,3.7,2.8,5.3"/><path class="cls-2" d="M47.2,85.4a2.7,2.7,0,0,0,3.1,2.2"/><path class="cls-2" d="M55,89.4c-.1,3.5,5.5,3.1,5.4-.3"/><path class="cls-2" d="M65.2,83.9a3.4,3.4,0,0,0,1.3-5.4"/><path class="cls-2" d="M71.4,74.2c4.7,1.1,4-5.5,1.4-7.4"/><path class="cls-2" d="M82.3,66a38.4,38.4,0,0,0,3.5,5.4"/><path class="cls-2" d="M68.1,90.1a27.4,27.4,0,0,0,5.3,2.3"/><path class="cls-2" d="M75.1,84.5a14.9,14.9,0,0,0,6.2,3.6"/><path class="cls-2" d="M81,80.8l3.6,2.7"/></svg>